<svg width="80" height="80" viewBox="0 0 80 80" fill="none" xmlns="http://www.w3.org/2000/svg">
<g clip-path="url(#clip0_301_47)">
<rect width="80" height="80" rx="12" fill="white"/>
<path d="M59.4712 39.36H66.3512C67.7912 39.36 68.8712 39.04 69.5912 38.4C70.3112 37.76 70.6712 36.72 70.6712 35.28C70.6712 33.8933 70.3112 32.8933 69.5912 32.28C68.8712 31.64 67.7912 31.32 66.3512 31.32H59.4712V39.36ZM53.1912 26.44H68.5912C69.8712 26.44 71.0179 26.6533 72.0312 27.08C73.0712 27.48 73.9512 28.04 74.6712 28.76C75.4179 29.48 75.9779 30.32 76.3512 31.28C76.7512 32.2133 76.9512 33.2267 76.9512 34.32C76.9512 36 76.5912 37.4533 75.8712 38.68C75.1779 39.9067 74.0312 40.84 72.4312 41.48V41.56C73.2046 41.7733 73.8446 42.1067 74.3512 42.56C74.8579 42.9867 75.2712 43.5067 75.5912 44.12C75.9112 44.7067 76.1379 45.36 76.2712 46.08C76.4312 46.8 76.5379 47.52 76.5912 48.24C76.6179 48.6933 76.6446 49.2267 76.6712 49.84C76.6979 50.4533 76.7379 51.08 76.7912 51.72C76.8712 52.36 76.9779 52.9733 77.1112 53.56C77.2712 54.12 77.4979 54.6 77.7912 55H71.5112C71.1646 54.0933 70.9512 53.0133 70.8712 51.76C70.7912 50.5067 70.6712 49.3067 70.5112 48.16C70.2979 46.6667 69.8446 45.5733 69.1512 44.88C68.4579 44.1867 67.3246 43.84 65.7512 43.84H59.4712V55H53.1912V26.44Z" fill="#11191F"/>
<path d="M21.7022 26.44H30.5422L37.2222 46.08H37.3022L43.6222 26.44H52.4622V55H46.5822V34.76H46.5022L39.5022 55H34.6622L27.6622 34.96H27.5822V55H21.7022V26.44Z" fill="#11191F"/>
<path d="M15.36 57.56C14.7467 59.24 13.8933 60.44 12.8 61.16C11.7067 61.88 10.1867 62.24 8.23999 62.24C7.65332 62.24 7.06665 62.2133 6.47999 62.16C5.91999 62.1333 5.34665 62.0933 4.75999 62.04V57.36C5.29332 57.4133 5.83999 57.4667 6.39999 57.52C6.95999 57.5733 7.51999 57.5867 8.07999 57.56C8.82665 57.48 9.37332 57.1867 9.71999 56.68C10.0933 56.1733 10.28 55.6133 10.28 55C10.28 54.5467 10.2 54.12 10.04 53.72L2.79999 34.32H8.83999L13.52 48.48H13.6L18.12 34.32H24L15.36 57.56Z" fill="#1095C1"/>
</g>
<defs>
<clipPath id="clip0_301_47">
<rect width="80" height="80" rx="12" fill="white"/>
</clipPath>
</defs>
</svg>
